<svg width="264" height="280" viewBox="0 0 264 280" fill="none" xmlns="http://www.w3.org/2000/svg">
<circle cx="132" cy="160" r="120" fill="#E5E5E5"/>
<mask id="mask0_203_658" style="mask-type:alpha" maskUnits="userSpaceOnUse" x="32" y="36" width="200" height="244">
<path d="M132 36C162.928 36 188 61.0721 188 92L188.001 98.1661C193.676 99.1185 198 104.054 198 110V124C198 130.052 193.519 135.058 187.694 135.881C185.628 155.686 173.238 172.422 156.001 180.61L156 199H160C199.765 199 232 231.235 232 271V280H32V271C32 231.235 64.2355 199 104 199H108L108 180.611C90.7626 172.422 78.3721 155.687 76.3051 135.881C70.4808 135.058 66 130.052 66 124V110C66 104.054 70.3247 99.118 76.0002 98.1659L76 92C76 61.0721 101.072 36 132 36Z" fill="#D08B5B"/>
</mask>
<g mask="url(#mask0_203_658)">
<path d="M132 36C162.928 36 188 61.0721 188 92L188.001 98.1661C193.676 99.1185 198 104.054 198 110V124C198 130.052 193.519 135.058 187.694 135.881C185.628 155.686 173.238 172.422 156.001 180.61L156 199H160C199.765 199 232 231.235 232 271V280H32V271C32 231.235 64.2355 199 104 199H108L108 180.611C90.7626 172.422 78.3721 155.687 76.3051 135.881C70.4808 135.058 66 130.052 66 124V110C66 104.054 70.3247 99.118 76.0002 98.1659L76 92C76 61.0721 101.072 36 132 36Z" fill="#D08B5B"/>
<path fill-rule="evenodd" clip-rule="evenodd" d="M76 130C76 160.928 101.072 186 132 186C162.928 186 188 160.928 188 130V138C188 168.928 162.928 194 132 194C101.072 194 76 168.928 76 138V130Z" fill="black" fill-opacity="0.1"/>
</g>
<g clip-path="url(#clip0_203_658)">
<mask id="mask1_203_658" style="mask-type:alpha" maskUnits="userSpaceOnUse" x="32" y="199" width="200" height="81">
<path d="M99 200.348C99 212.211 113.998 221.828 132.5 221.828C151.002 221.828 166 212.211 166 200.348C166 199.995 165.987 199.644 165.96 199.295C202.936 202.325 232 233.294 232 271.052V280H32V271.052C32 232.952 61.5926 201.764 99.0466 199.219C99.0152 199.595 99 199.97 99 200.348Z" fill="white"/>
</mask>
<g mask="url(#mask1_203_658)">
<path d="M99 200.348C99 212.211 113.998 221.828 132.5 221.828C151.002 221.828 166 212.211 166 200.348C166 199.995 165.987 199.644 165.96 199.295C202.936 202.325 232 233.294 232 271.052V280H32V271.052C32 232.952 61.5926 201.764 99.0466 199.219C99.0152 199.595 99 199.97 99 200.348Z" fill="#262E33"/>
<path d="M264 170H0V280H264V170Z" fill="#262E33"/>
<g opacity="0.6">
<g opacity="0.6">
<path opacity="0.6" d="M132.5 228.761C154.39 228.761 172.135 216.712 172.135 201.848C172.135 186.984 154.39 174.934 132.5 174.934C110.61 174.934 92.8649 186.984 92.8649 201.848C92.8649 216.712 110.61 228.761 132.5 228.761Z" fill="black" fill-opacity="0.16"/>
</g>
</g>
</g>
<path fill-rule="evenodd" clip-rule="evenodd" d="M96 238.5C96 253.709 97.9609 267.921 101.362 280.001L32 280V271.052C32 232.365 62.5123 200.804 100.785 199.122C97.74 210.731 96 224.173 96 238.5ZM232 271.052V280L163.638 280.001C167.039 267.921 169 253.709 169 238.5C169 224.194 167.265 210.771 164.229 199.174C202.025 201.363 232 232.707 232 271.052Z" fill="#3A4C5A"/>
<path fill-rule="evenodd" clip-rule="evenodd" d="M181 256L190.556 248.833C191.999 247.751 193.988 247.768 195.412 248.876L202 254L181 256Z" fill="#262E33"/>
<path fill-rule="evenodd" clip-rule="evenodd" d="M101 198C97 217.333 98.6667 244.667 106 280H90L76 244L82 235L76 229L95 199C97.0277 198.369 99.0277 198.036 101 198Z" fill="#2F4351"/>
<path fill-rule="evenodd" clip-rule="evenodd" d="M163 198C167 217.333 165.333 244.667 158 280H174L188 244L182 235L188 229L169 199C166.972 198.369 164.972 198.036 163 198Z" fill="#2F4351"/>
</g>
<path fill-rule="evenodd" clip-rule="evenodd" d="M118 149C118 156.732 124.268 163 132 163C139.732 163 146 156.732 146 149" fill="black" fill-opacity="0.7"/>
<path fill-rule="evenodd" clip-rule="evenodd" d="M120 130C120 134.418 125.373 138 132 138C138.627 138 144 134.418 144 130" fill="black" fill-opacity="0.16"/>
<path fill-rule="evenodd" clip-rule="evenodd" d="M92.1602 117.553C94.0067 121.351 98.1644 124 102.998 124C107.814 124 111.959 121.37 113.815 117.593C114.367 116.471 113.582 115.553 112.791 116.233C110.34 118.34 106.859 119.656 102.998 119.656C99.2572 119.656 95.8738 118.421 93.4375 116.428C92.5468 115.7 91.6201 116.442 92.1602 117.553Z" fill="#262E33"/>
<path fill-rule="evenodd" clip-rule="evenodd" d="M150.16 117.553C152.007 121.351 156.164 124 160.998 124C165.814 124 169.959 121.37 171.815 117.593C172.367 116.471 171.582 115.553 170.791 116.233C168.34 118.34 164.859 119.656 160.998 119.656C157.257 119.656 153.874 118.421 151.438 116.428C150.547 115.7 149.62 116.442 150.16 117.553Z" fill="#262E33"/>
<path d="M91.6302 99.1586C95.5451 93.6499 106.278 90.5608 115.523 92.8312C116.596 93.0946 117.679 92.4386 117.942 91.3659C118.206 90.2932 117.55 89.21 116.477 88.9466C105.74 86.31 93.312 89.887 88.3697 96.8414C87.7298 97.7418 87.941 98.9904 88.8413 99.6303C89.7417 100.27 90.9903 100.059 91.6302 99.1586Z" fill="#262E33"/>
<path d="M172.37 99.1586C168.455 93.6499 157.722 90.5608 148.477 92.8312C147.405 93.0946 146.321 92.4386 146.058 91.3659C145.795 90.2932 146.451 89.21 147.523 88.9466C158.26 86.31 170.688 89.887 175.631 96.8414C176.27 97.7418 176.059 98.9904 175.159 99.6303C174.259 100.27 173.01 100.059 172.37 99.1586Z" fill="#262E33"/>
<path d="M81 76.9999C80.2279 79.4608 79.9393 82.5928 79.7859 85.8009L79.7539 86.5148C79.4334 94.138 79.7281 101.941 76 102C70.9237 102.071 70 100.994 70 96.9999C70 91.3439 74.0409 80.778 78 75.9999C79.1761 73.8292 81.619 72.568 81 76.9999ZM185 76.9999C184.381 72.568 186.824 73.8292 188 75.9999C191.959 80.778 196 91.3439 196 96.9999C196 100.994 195.076 102.071 190 102C186.272 101.941 186.567 94.138 186.246 86.5148L186.214 85.8009C186.061 82.5928 185.772 79.4608 185 76.9999Z" fill="#E5E5E5"/>
<mask id="mask2_203_658" style="mask-type:alpha" maskUnits="userSpaceOnUse" x="74" y="98" width="118" height="99">
<path d="M133.499 165.841C122.124 166.219 117.05 171.721 113.229 166.13C110.361 161.932 111.561 154.874 114.241 150.903C118.054 145.251 123.227 147.985 129.01 147.34C130.583 147.165 132.163 146.723 133.499 146C134.834 146.723 136.414 147.165 137.986 147.34C143.77 147.985 148.943 145.251 152.756 150.903C155.435 154.874 156.635 161.932 153.768 166.13C149.946 171.721 144.873 165.463 133.499 165.841ZM188.72 98C185.336 112.075 183.781 126.434 181.328 140.671C180.817 143.639 180.257 146.596 179.663 149.55C179.538 150.17 179.415 152.473 178.811 152.764C176.982 153.648 173.254 148.947 172.258 147.885C169.754 145.219 167.272 142.529 164.223 140.437C158.063 136.21 150.851 133.711 143.346 133.118C140.206 132.869 135.96 133.303 133 135.11C130.041 133.303 125.795 132.869 122.655 133.118C115.15 133.711 107.937 136.21 101.777 140.437C98.7279 142.529 96.2463 145.219 93.7426 147.885C92.7459 148.947 89.0183 153.648 87.1893 152.764C86.5855 152.473 86.4624 150.17 86.3376 149.55C85.7433 146.596 85.1836 143.639 84.6723 140.671C82.2192 126.434 80.6644 112.075 77.2806 98C76.2961 98 75.4322 116.748 75.3224 118.495C74.8752 125.589 74.3531 132.525 75.0203 139.626C76.1706 151.875 77.3698 167.234 86.5919 176.588C94.9248 185.039 107.023 186.806 117.459 192.141C118.802 192.828 120.584 193.676 122.506 194.371C124.531 195.934 128.546 197 133.172 197C138.024 197 142.205 195.827 144.12 194.138C145.801 193.493 147.345 192.753 148.541 192.141C158.976 186.805 171.075 185.039 179.408 176.588C188.63 167.234 189.83 151.875 190.98 139.626C191.647 132.525 191.125 125.589 190.678 118.495C190.568 116.748 189.704 98 188.72 98Z" fill="white"/>
</mask>
<g mask="url(#mask2_203_658)">
<path d="M133.499 165.841C122.124 166.219 117.05 171.721 113.229 166.13C110.361 161.932 111.561 154.874 114.241 150.903C118.054 145.251 123.227 147.985 129.01 147.34C130.583 147.165 132.163 146.723 133.499 146C134.834 146.723 136.414 147.165 137.986 147.34C143.77 147.985 148.943 145.251 152.756 150.903C155.435 154.874 156.635 161.932 153.768 166.13C149.946 171.721 144.873 165.463 133.499 165.841ZM188.72 98C185.336 112.075 183.781 126.434 181.328 140.671C180.817 143.639 180.257 146.596 179.663 149.55C179.538 150.17 179.415 152.473 178.811 152.764C176.982 153.648 173.254 148.947 172.258 147.885C169.754 145.219 167.272 142.529 164.223 140.437C158.063 136.21 150.851 133.711 143.346 133.118C140.206 132.869 135.96 133.303 133 135.11C130.041 133.303 125.795 132.869 122.655 133.118C115.15 133.711 107.937 136.21 101.777 140.437C98.7279 142.529 96.2463 145.219 93.7426 147.885C92.7459 148.947 89.0183 153.648 87.1893 152.764C86.5855 152.473 86.4624 150.17 86.3376 149.55C85.7433 146.596 85.1836 143.639 84.6723 140.671C82.2192 126.434 80.6644 112.075 77.2806 98C76.2961 98 75.4322 116.748 75.3224 118.495C74.8752 125.589 74.3531 132.525 75.0203 139.626C76.1706 151.875 77.3698 167.234 86.5919 176.588C94.9248 185.039 107.023 186.806 117.459 192.141C118.802 192.828 120.584 193.676 122.506 194.371C124.531 195.934 128.546 197 133.172 197C138.024 197 142.205 195.827 144.12 194.138C145.801 193.493 147.345 192.753 148.541 192.141C158.976 186.805 171.075 185.039 179.408 176.588C188.63 167.234 189.83 151.875 190.98 139.626C191.647 132.525 191.125 125.589 190.678 118.495C190.568 116.748 189.704 98 188.72 98Z" fill="#724133"/>
</g>
<path fill-rule="evenodd" clip-rule="evenodd" d="M133 57C165.585 57 192 71.7746 192 90C192 92.5798 191.471 95.0904 190.47 97.4998C184.397 82.8875 160.972 72 133 72C105.028 72 81.6018 82.888 75.5305 97.5002C74.5295 95.0911 74.0001 92.5801 74.0001 90C74.0001 71.7746 100.415 57 133 57Z" fill="#EDECE3"/>
<mask id="mask3_203_658" style="mask-type:alpha" maskUnits="userSpaceOnUse" x="49" y="3" width="169" height="138">
<path d="M135 3C164.851 3 216.918 47.1483 217 94.3235C217.044 119.801 207.378 135.36 188 141C194.115 85.1103 156.403 72.4139 132.97 58.8163C109.512 72.4137 71.8618 85.1099 78.0003 141C58.6225 135.999 48.9558 120.44 49.0002 94.3235C49.0806 47.1483 101.074 3 131 3C131.668 3 132.333 3.02963 132.992 3.08805C133.656 3.02965 134.326 3 135 3Z" fill="white"/>
</mask>
<g mask="url(#mask3_203_658)">
<path d="M135 3C164.851 3 216.918 47.1483 217 94.3235C217.044 119.801 207.378 135.36 188 141C194.115 85.1103 156.403 72.4139 132.97 58.8163C109.512 72.4137 71.8618 85.1099 78.0003 141C58.6225 135.999 48.9558 120.44 49.0002 94.3235C49.0806 47.1483 101.074 3 131 3C131.668 3 132.333 3.02963 132.992 3.08805C133.656 3.02965 134.326 3 135 3Z" fill="#124C74"/>
<path d="M265 0H1.00012V280H265V0Z" fill="#25557C"/>
</g>
<path fill-rule="evenodd" clip-rule="evenodd" d="M49.0002 97.0294L49.0123 96.0944C49.4019 121.145 59.0646 136.113 78.0003 141C58.6225 136.289 48.9558 121.632 49.0002 97.0294ZM149 50.1357C137.877 71.5104 77.878 72.0015 77.3371 129.226C77.4046 67.7592 137.833 67.3235 149 44.5441C151.669 39.5679 153.141 34.8372 153.646 30.4709C154.39 36.1969 153.126 42.8901 149 50.1357Z" fill="black" fill-opacity="0.16"/>
<defs>
<clipPath id="clip0_203_658">
<rect width="264" height="110" fill="white" transform="translate(0 170)"/>
</clipPath>
</defs>
</svg>
