<svg width="273" height="290" viewBox="0 0 273 290" fill="none" xmlns="http://www.w3.org/2000/svg">
<circle cx="132" cy="160" r="120" fill="#E5E5E5"/>
<path d="M92 206.345C92 222.627 114.162 235.826 141.5 235.826C168.838 235.826 191 222.627 191 206.345C191 204.983 190.845 203.642 190.544 202.329C219.784 211.486 241 238.79 241 271.05V279.998H41V271.05C41 238.395 62.7387 210.818 92.5337 202C92.1822 203.419 92 204.869 92 206.345Z" fill="#262E33"/>
<ellipse cx="132.5" cy="111.5" rx="66.5" ry="78.5" fill="#EDB98A"/>
<mask id="mask0_203_657" style="mask-type:alpha" maskUnits="userSpaceOnUse" x="51" y="21" width="170" height="259">
<path d="M133 21C170.555 21 201 51.4446 201 89L201 119.754C201.875 129.556 202.694 136.423 203.456 140.354C204.833 147.458 209.15 145.115 209.15 155.22C209.15 165.325 204.822 168.72 204.803 177.705C204.784 186.691 220.2 193.836 220.2 205.243C220.2 216.649 213.126 270.476 142.578 270.476C127.507 270.476 114.67 266.188 104.066 257.613C104.75 264.103 105.394 271.566 106 280H58.9999C59.9324 256.229 51.7156 242.936 51.7156 216.446C51.7156 189.955 65.3525 151.428 64.9999 142C65.0201 141.412 65.041 140.714 65.0626 139.908C65.0204 138.943 64.9999 137.974 64.9999 137V89C64.9999 85.0286 65.3404 81.1366 65.9937 77.3518C65.9971 77.2355 65.9985 77.1178 65.9999 77L66.0417 77.0774C71.6781 45.207 99.5121 21 133 21ZM133.5 53H132.5C102.4 53 77.9999 77.4005 77.9999 107.5V130.5C77.9999 160.6 102.4 185 132.5 185H133.5C163.599 185 188 160.6 188 130.5V107.5C188 77.4005 163.599 53 133.5 53Z" fill="white"/>
</mask>
<g mask="url(#mask0_203_657)">
<path d="M133 21C170.555 21 201 51.4446 201 89L201 119.754C201.875 129.556 202.694 136.423 203.456 140.354C204.833 147.458 209.15 145.115 209.15 155.22C209.15 165.325 204.822 168.72 204.803 177.705C204.784 186.691 220.2 193.836 220.2 205.243C220.2 216.649 213.126 270.476 142.578 270.476C127.507 270.476 114.67 266.188 104.066 257.613C104.75 264.103 105.394 271.566 106 280H58.9999C59.9324 256.229 51.7156 242.936 51.7156 216.446C51.7156 189.955 65.3525 151.428 64.9999 142C65.0201 141.412 65.041 140.714 65.0626 139.908C65.0204 138.943 64.9999 137.974 64.9999 137V89C64.9999 85.0286 65.3404 81.1366 65.9937 77.3518C65.9971 77.2355 65.9985 77.1178 65.9999 77L66.0417 77.0774C71.6781 45.207 99.5121 21 133 21ZM133.5 53H132.5C102.4 53 77.9999 77.4005 77.9999 107.5V130.5C77.9999 160.6 102.4 185 132.5 185H133.5C163.599 185 188 160.6 188 130.5V107.5C188 77.4005 163.599 53 133.5 53Z" fill="#3B6BAD"/>
<path d="M265 0H0.999878V280H265V0Z" fill="#25557C"/>
<path fill-rule="evenodd" clip-rule="evenodd" d="M133 32C167.242 32 195 59.5345 195 93.5C195 97.4141 194.631 101.243 193.927 104.954C192.338 72.6796 165.668 47 133 47C100.332 47 73.6619 72.6796 72.0746 104.954C71.3685 101.243 70.9999 97.4141 70.9999 93.5C70.9999 59.5345 98.7582 32 133 32Z" fill="white" fill-opacity="0.5"/>
<path opacity="0.9" fill-rule="evenodd" clip-rule="evenodd" d="M198.661 209.489C198.803 209.809 198.935 210.135 199.056 210.467C203.583 222.904 190.979 238.909 170.905 246.216C150.831 253.522 130.888 249.363 126.361 236.926C126.24 236.594 126.131 236.259 126.035 235.922C134.228 241.575 150.422 241.844 167.104 235.772C183.756 229.711 195.975 219.123 198.646 209.539L198.661 209.489ZM187.05 194.145C187.118 194.397 187.175 194.653 187.221 194.911C188.93 204.606 173.985 215.345 153.84 218.898C133.695 222.45 115.978 217.47 114.268 207.775C114.223 207.516 114.189 207.257 114.167 206.997C120.653 211.981 135.665 213.708 152.404 210.756C169.115 207.81 182.613 201.071 187.026 194.181L187.05 194.145ZM189 115.5V138.5C189 168.599 164.599 193 134.5 193H131.5C101.4 193 76.9999 168.599 76.9999 138.5V115.5C76.9999 111.802 77.3682 108.19 78.0701 104.699C78.0236 105.627 77.9999 106.561 77.9999 107.5V130.5C77.9999 160.599 102.4 185 132.5 185H133.5C163.599 185 188 160.599 188 130.5V107.5C188 106.561 187.976 105.627 187.929 104.7C188.632 108.19 189 111.802 189 115.5Z" fill="black" fill-opacity="0.16"/>
</g>
<path fill-rule="evenodd" clip-rule="evenodd" d="M98.7664 89.5784L99.6773 89.1758C104.919 87.0947 112.865 87.9671 117.723 90.2991C118.29 90.5715 117.902 91.4519 117.321 91.4071C102.402 90.256 92.3583 99.5526 88.9461 105.847C88.8449 106.034 88.5392 106.055 88.4635 105.881C86.1563 100.562 92.9134 91.8961 98.7664 89.5784Z" fill="black" fill-opacity="0.6"/>
<path fill-rule="evenodd" clip-rule="evenodd" d="M165.234 89.5784L164.323 89.1758C159.081 87.0947 151.135 87.9671 146.277 90.2991C145.71 90.5715 146.098 91.4519 146.679 91.4071C161.598 90.256 171.642 99.5526 175.054 105.847C175.155 106.034 175.461 106.055 175.536 105.881C177.844 100.562 171.087 91.8961 165.234 89.5784Z" fill="black" fill-opacity="0.6"/>
<mask id="mask1_203_657" style="mask-type:alpha" maskUnits="userSpaceOnUse" x="114" y="149" width="38" height="19">
<path d="M114.118 151.128C115.176 160.62 123.226 168 133 168C142.804 168 150.874 160.574 151.892 151.04C151.974 150.273 151.117 149 150.043 149C135.149 149 123.738 149 116.087 149C115.007 149 114.012 150.178 114.118 151.128Z" fill="white"/>
</mask>
<g mask="url(#mask1_203_657)">
<path d="M114.118 151.128C115.176 160.62 123.226 168 133 168C142.804 168 150.874 160.574 151.892 151.04C151.974 150.273 151.117 149 150.043 149C135.149 149 123.738 149 116.087 149C115.007 149 114.012 150.178 114.118 151.128Z" fill="black" fill-opacity="0.7"/>
<path fill-rule="evenodd" clip-rule="evenodd" d="M123 138H144C146.761 138 149 140.239 149 143V149C149 151.761 146.761 154 144 154H123C120.239 154 118 151.761 118 149V143C118 140.239 120.239 138 123 138Z" fill="white"/>
<path d="M128 182C134.075 182 139 177.075 139 171C139 164.925 134.075 160 128 160C121.925 160 117 164.925 117 171C117 177.075 121.925 182 128 182Z" fill="#FF4F6D"/>
<path d="M138 182C144.075 182 149 177.075 149 171C149 164.925 144.075 160 138 160C131.925 160 127 164.925 127 171C127 177.075 131.925 182 138 182Z" fill="#FF4F6D"/>
</g>
<mask id="mask2_203_657" style="mask-type:alpha" maskUnits="userSpaceOnUse" x="93" y="105" width="28" height="16">
<path d="M107 119.048C116.61 119.048 121 123.499 121 116.562C121 109.624 114.732 105 107 105C99.268 105 93 109.624 93 116.562C93 123.499 97.39 119.048 107 119.048Z" fill="white"/>
</mask>
<g mask="url(#mask2_203_657)">
<path d="M107 119.048C116.61 119.048 121 123.499 121 116.562C121 109.624 114.732 105 107 105C99.268 105 93 109.624 93 116.562C93 123.499 97.39 119.048 107 119.048Z" fill="white"/>
<path d="M107 121C110.314 121 113 118.314 113 115C113 111.686 110.314 109 107 109C103.686 109 101 111.686 101 115C101 118.314 103.686 121 107 121Z" fill="black" fill-opacity="0.7"/>
</g>
<mask id="mask3_203_657" style="mask-type:alpha" maskUnits="userSpaceOnUse" x="145" y="105" width="28" height="16">
<path d="M159 119.048C168.61 119.048 173 123.499 173 116.562C173 109.624 166.732 105 159 105C151.268 105 145 109.624 145 116.562C145 123.499 149.39 119.048 159 119.048Z" fill="white"/>
</mask>
<g mask="url(#mask3_203_657)">
<path d="M159 119.048C168.61 119.048 173 123.499 173 116.562C173 109.624 166.732 105 159 105C151.268 105 145 109.624 145 116.562C145 123.499 149.39 119.048 159 119.048Z" fill="white"/>
<path d="M159 121C162.314 121 165 118.314 165 115C165 111.686 162.314 109 159 109C155.686 109 153 111.686 153 115C153 118.314 155.686 121 159 121Z" fill="black" fill-opacity="0.7"/>
</g>
</svg>
